<svg xmlns="http://www.w3.org/2000/svg" viewBox="0 0 790.2 164.13"><g id="Layer_2" data-name="Layer 2"><g id="레이어_1" data-name="레이어 1"><polygon points="124.23 118.88 31.43 0.72 30.87 0 0 0 10.79 14.83 10.79 160.99 19.7 160.99 19.7 25.27 125.3 160.26 125.86 160.99 133.14 160.99 133.14 0 124.23 0 124.23 118.88"/><path d="M293.21,104.52c0,41.72-24.51,50.47-45.08,50.47-13.89,0-37.21-6.09-37.21-46.87V0H186.28V104.08c0,39.84,19.23,60.05,57.14,60.05,39,0,58.7-20.36,58.7-60.5V0h-8.91Z"/><path d="M663.58,0V31.17l3.16-3C679.49,16,695.15,9.75,714.57,9V161H739.2V9C758.62,9.75,774.29,16,787,28.16l3.16,3V0Z"/><path d="M627.06,45.45C627.06,0,588.92,0,544.77,0h-25V161h24.63V9.13h3c20.24,0,37.75-.11,47.25,9.37,5.24,5.22,7.79,13.16,7.79,24.26,0,22.73-10.7,33.26-36.92,36.32l-2.91.34L612,161h28.86L593.92,83.44C616.21,77,627.06,64.56,627.06,45.45Z"/><path d="M448.64,96.46,409.17,0H380.09l8.18,20.05L333.51,160.76h8.73l87.54-39.31,16,39.31h29.21l-26.31-64.3ZM345.28,152.52,392.85,31.29,403.4,57.15h.05l22.79,56.06Z"/></g></g></svg>